<svg width="23" height="24" viewBox="0 0 23 24" fill="none" xmlns="http://www.w3.org/2000/svg">
<path d="M11.6227 13.4299C12.0325 13.4299 12.4382 13.3492 12.8167 13.1924C13.1953 13.0357 13.5392 12.8058 13.8289 12.5161C14.1186 12.2264 14.3485 11.8824 14.5053 11.5039C14.662 11.1254 14.7427 10.7197 14.7427 10.3099C14.7427 9.90022 14.662 9.49451 14.5053 9.11597C14.3485 8.73743 14.1186 8.39349 13.8289 8.10377C13.5392 7.81405 13.1953 7.58423 12.8167 7.42744C12.4382 7.27064 12.0325 7.18994 11.6227 7.18994C10.7953 7.18994 10.0017 7.51865 9.41657 8.10377C8.83146 8.68888 8.50275 9.48247 8.50275 10.3099C8.50275 11.1374 8.83146 11.931 9.41657 12.5161C10.0017 13.1012 10.7953 13.4299 11.6227 13.4299Z" stroke="white" stroke-width="1.5"/>
<path d="M3.24276 8.49C5.21276 -0.169998 18.0428 -0.159997 20.0028 8.5C21.1528 13.58 17.9928 17.88 15.2228 20.54C14.2548 21.4735 12.9625 21.9952 11.6178 21.9952C10.273 21.9952 8.98068 21.4735 8.01276 20.54C5.25276 17.88 2.09276 13.57 3.24276 8.49Z" stroke="white" stroke-width="1.5"/>
</svg>
