<svg width="18" height="18" viewBox="0 0 18 18" fill="none" xmlns="http://www.w3.org/2000/svg">
<path d="M17 17L15.4 15.4M8.6 16.2C9.59805 16.2 10.5863 16.0034 11.5084 15.6215C12.4305 15.2395 13.2683 14.6797 13.974 13.974C14.6797 13.2683 15.2395 12.4305 15.6215 11.5084C16.0034 10.5863 16.2 9.59805 16.2 8.6C16.2 7.60195 16.0034 6.61368 15.6215 5.69161C15.2395 4.76953 14.6797 3.93171 13.974 3.22599C13.2683 2.52026 12.4305 1.96045 11.5084 1.57852C10.5863 1.19658 9.59805 1 8.6 1C6.58435 1 4.65126 1.80071 3.22599 3.22599C1.80071 4.65126 1 6.58435 1 8.6C1 10.6156 1.80071 12.5487 3.22599 13.974C4.65126 15.3993 6.58435 16.2 8.6 16.2Z" stroke="black" stroke-width="1.5" stroke-linecap="round" stroke-linejoin="round"/>
</svg>
